<svg width="105" height="100" viewBox="0 0 105 100" fill="none" xmlns="http://www.w3.org/2000/svg">
<g clip-path="url(#clip0_2_463)">
<path fill-rule="evenodd" clip-rule="evenodd" d="M26.112 4.91757C26.0633 5.00203 20.1683 15.2157 13.0118 27.6149L0 50.159L8.92892 65.6486C13.84 74.1679 17.928 81.2185 18.0134 81.3164C18.2228 81.5559 20.7067 80.0308 20.5885 79.7354C20.5374 79.6071 19.2955 77.4323 17.829 74.9018C15.6584 71.1567 15.2196 70.2692 15.4699 70.1292C16.0514 69.8036 18.1916 70.221 19.6293 70.9404C21.6892 71.9707 23.0738 73.7189 23.7144 76.098L23.9522 76.981L25.6265 76.8493C27.9629 76.6655 30.2685 77.1094 32.4746 78.168C33.8829 78.8436 34.534 79.3252 35.878 80.6843C36.9411 81.7595 37.7879 82.8443 38.2277 83.6943C38.606 84.4253 38.9416 85.0558 38.9739 85.0954C39.006 85.1349 39.4753 85.0263 40.0167 84.8539C42.7533 83.9826 45.1347 84.3816 47.3742 86.0866C48.8103 87.1799 50.1008 89.8404 50.1008 91.708V92.4905L39.0093 92.4378L27.9175 92.3848L25.2055 87.6817C23.714 85.095 22.4031 82.9484 22.2924 82.9112C22.0215 82.8204 19.8374 84.0818 19.8374 84.3288C19.8374 84.4366 21.2723 87.0065 23.0259 90.0402L26.2144 95.5559L52.3808 95.504L78.5469 95.452L91.6235 72.8056L104.7 50.1593L91.6235 27.5129L78.5471 4.86645L60.8478 4.81411L43.1484 4.76196V6.29353V7.82511L49.0264 7.8795L54.9045 7.93369L55.0568 9.1526C55.4758 12.5092 56.8197 15.1766 59.3965 17.7662C60.961 19.3385 61.5436 19.7703 63.1876 20.5766C65.4752 21.6984 66.8736 22.0847 69.3178 22.2691L71.1124 22.4045L71.6614 23.7412C73.7657 28.8655 78.5872 32.885 84.0835 34.097C85.8216 34.4802 88.4416 34.5851 90.5015 34.3542L91.9487 34.1919L96.4827 42.0528C98.9765 46.3763 101.014 50.038 101.009 50.1897C101.006 50.3416 95.5521 59.8977 88.8908 71.4254L76.7794 92.3848L64.9736 92.4376L53.168 92.4903L53.1649 91.6196C53.1566 89.1996 51.9391 86.3728 50.1008 84.5055C47.9774 82.3486 45.5396 81.3604 42.3898 81.3798L40.5065 81.3912L39.4575 79.9807C36.8843 76.5203 32.5012 74.1736 27.8537 73.7682L26.1862 73.6228L25.5566 72.5073C23.5923 69.027 20.0667 67.0125 16.0545 67.0783C15.0423 67.0949 14.0334 67.1366 13.8126 67.1709C13.4799 67.2229 12.5802 65.7991 8.5539 58.8497C5.88234 54.2387 3.69663 50.3279 3.69683 50.1593C3.69683 49.9906 9.14731 40.4208 15.8089 28.8931L27.921 7.93369L34.0011 7.8795L40.0812 7.82531V6.29476V4.76421H33.1408C29.3236 4.76421 26.1606 4.83312 26.112 4.91757ZM83.4939 19.5579C87.1865 25.9512 90.1513 31.2385 90.0822 31.3076C90.0132 31.3767 89.0176 31.4273 87.8699 31.4203C81.1355 31.3784 75.3147 26.8184 73.7273 20.3406L73.3657 18.8655L72.3151 19.0228C71.7374 19.1095 70.4825 19.1661 69.5266 19.1489C63.9232 19.0485 58.7978 14.4548 58.1512 8.95405L58.0187 7.82736L67.3996 7.88052L76.7802 7.93369L83.4939 19.5579ZM70.3445 13.4547V14.9883H71.8781H73.4118V13.4547V11.9211H71.8781H70.3445V13.4547ZM26.8933 17.0587C26.4896 17.7476 26.1862 18.3306 26.2189 18.3545C26.5843 18.6195 28.6224 19.6914 28.7612 19.6914C28.9539 19.6914 30.3609 17.2609 30.236 17.144C30.0114 16.934 27.9689 15.8062 27.813 15.8062C27.7108 15.8062 27.2969 16.3698 26.8933 17.0587ZM76.9301 20.9694L76.9902 22.4519L78.4727 22.512L79.9552 22.5722V21.0295V19.4869H78.4126H76.8699L76.9301 20.9694ZM23.9381 22.1963C23.605 22.7869 23.3144 23.3617 23.2926 23.4739C23.2515 23.6847 25.2989 25.0057 25.6691 25.0071C25.8772 25.0079 27.3051 22.5859 27.1687 22.4634C26.8636 22.1896 24.9589 21.1228 24.7753 21.1228C24.6481 21.1228 24.2714 21.6058 23.9381 22.1963ZM47.8713 23.9062C36.8749 25.749 27.8736 34.821 26.0839 45.8651C23.9952 58.754 31.5864 71.2514 44.0336 75.4148C57.8705 80.0435 72.9887 72.4139 77.5979 58.4757C82.2037 44.5487 74.6562 29.583 60.6666 24.9037C59.5227 24.5209 57.7126 24.0661 56.6442 23.8931C54.2761 23.5093 50.2034 23.5154 47.8713 23.9062ZM20.8247 27.567C20.2863 28.5089 20.1441 28.923 20.3155 29.0524C20.7682 29.3939 22.4671 30.3245 22.6382 30.3245C22.9188 30.3245 24.1943 27.8498 24.0017 27.6795C23.9044 27.5934 23.3179 27.2391 22.6981 26.892L21.5714 26.261L20.8247 27.567ZM58.0756 27.318C66.545 29.5558 72.9652 35.977 75.1889 44.4338C75.8831 47.0738 76.0535 51.289 75.5766 54.0242C74.9902 57.3879 73.6874 60.6199 71.7663 63.478C70.641 65.1519 67.3427 68.4502 65.6688 69.5754C61.6309 72.2897 57.1315 73.6747 52.3501 73.6747C45.966 73.6747 40.34 71.3254 35.7615 66.7475C32.5836 63.5702 30.4948 59.8893 29.4045 55.5457C28.7884 53.0911 28.7412 47.6329 29.3146 45.1494C30.3384 40.7157 32.5069 36.8203 35.7596 33.571C39.3013 30.0333 43.3741 27.8662 48.1899 26.9575C50.7052 26.4827 55.5887 26.6608 58.0756 27.318ZM48.2533 30.7093C42.2851 32.0108 37.4033 35.8011 34.6579 41.2643C32.9691 44.6245 32.6439 46.0608 32.6439 50.1593C32.6439 54.2577 32.9691 55.694 34.6579 59.0542C36.6702 63.0588 39.4505 65.8391 43.4551 67.8515C46.3467 69.3047 48.2715 69.8014 51.5322 69.9359C54.4188 70.055 56.6735 69.7292 59.1618 68.8336C60.7619 68.2578 63.2623 66.9229 63.8857 66.3117C64.2706 65.9344 64.2628 65.9093 63.4191 64.7916C62.9472 64.1665 62.521 63.6551 62.4722 63.6551C62.4235 63.6551 61.8307 64.0125 61.1549 64.4493C58.358 66.2569 55.2253 67.0442 51.544 66.8642C48.7854 66.7295 47.3487 66.3794 45.075 65.2883C40.7635 63.2189 37.3431 59.1074 36.0612 54.4534C35.5466 52.5842 35.5466 47.7343 36.0612 45.8651C37.3431 41.2115 40.7625 37.101 45.075 35.0298C47.7114 33.7637 48.9481 33.5044 52.3501 33.5044C55.8334 33.5044 57.0385 33.7686 59.8137 35.1404C64.0632 37.2409 67.3705 41.2602 68.6389 45.8651C69.1536 47.7343 69.1536 52.5842 68.6389 54.4534C68.1171 56.3477 66.8626 58.853 65.6658 60.3905L64.6368 61.7125L65.5915 62.6838C66.1166 63.2181 66.6536 63.6551 66.7851 63.6551C67.2211 63.6551 69.133 60.9338 70.1576 58.8546C71.7346 55.6549 72.0562 54.1822 72.0562 50.1593C72.0562 46.0608 71.7311 44.6245 70.0423 41.2643C68.03 37.2597 65.2496 34.4794 61.2451 32.467C58.1934 30.9334 56.4389 30.502 52.8613 30.4057C50.6099 30.3451 49.6258 30.41 48.2533 30.7093ZM27.8122 83.7966V85.3302H29.3458H30.8795V83.7966V82.2629H29.3458H27.8122V83.7966ZM33.9467 88.4996V90.0333H35.4803H37.0139V88.4996V86.966H35.4803H33.9467V88.4996Z" fill="white"/>
</g>
<defs>
<clipPath id="clip0_2_463">
<rect width="104.762" height="100" fill="white"/>
</clipPath>
</defs>
</svg>
